<?xml version="1.0" standalone="no"?>
<!DOCTYPE svg PUBLIC "-//W3C//DTD SVG 20010904//EN"
 "http://www.w3.org/TR/2001/REC-SVG-20010904/DTD/svg10.dtd">
<svg version="1.0" xmlns="http://www.w3.org/2000/svg"
 width="933.000000pt" height="933.000000pt" viewBox="0 0 933.000000 933.000000"
 preserveAspectRatio="xMidYMid meet">
<metadata>
Created by potrace 1.16, written by Peter Selinger 2001-2019
</metadata>
<g transform="translate(0.000000,933.000000) scale(0.100000,-0.100000)"
fill="#000000" stroke="none">
<path d="M0 4665 l0 -4665 4665 0 4665 0 0 4665 0 4665 -4665 0 -4665 0 0
-4665z m6917 598 c-8 -276 -46 -444 -155 -676 -47 -101 -63 -122 -37 -46 92
259 119 600 69 866 -6 30 -4 32 28 36 18 2 48 5 67 5 l34 2 -6 -187z m-206
134 c27 -103 41 -277 36 -445 -8 -252 -46 -413 -145 -612 -53 -107 -119 -179
-277 -303 -157 -122 -498 -271 -820 -357 -233 -62 -552 -117 -805 -140 -69 -6
-144 -16 -167 -21 -102 -22 -135 -12 -315 97 -250 152 -435 337 -543 545 -76
148 -81 125 48 232 62 52 141 115 176 141 l64 47 32 -85 c47 -124 126 -243
243 -366 168 -177 287 -255 492 -323 145 -48 234 -61 395 -60 127 0 165 4 250
26 134 35 316 126 423 212 221 178 405 488 469 787 27 128 25 405 -4 517 -13
47 -21 86 -20 86 1 1 61 10 132 19 326 43 325 43 336 3z m-527 -44 c63 -207
61 -475 -4 -713 -28 -103 -116 -279 -188 -377 -159 -215 -382 -379 -599 -439
-400 -111 -933 79 -1193 425 -85 113 -196 350 -173 372 29 28 367 219 388 219
3 0 5 -8 5 -17 0 -35 139 -298 184 -349 124 -140 316 -204 550 -183 306 28
487 168 575 444 58 179 66 359 22 495 -14 45 -17 66 -9 71 6 4 72 16 147 28
75 12 161 25 191 30 85 13 98 13 104 -6z m-1548 -737 c0 -14 -3 -23 -7 -20 -4
2 -10 0 -13 -5 -3 -5 1 -12 10 -15 8 -3 13 -10 10 -14 -3 -5 4 -21 15 -38 16
-25 19 -26 20 -9 1 17 2 17 6 2 2 -9 9 -15 14 -11 5 3 6 11 2 17 -4 7 0 6 10
-2 9 -7 17 -20 17 -28 0 -13 -3 -13 -15 -3 -11 9 -15 9 -15 1 0 -26 59 -48
125 -46 l64 2 -4 -33 c-2 -20 1 -37 11 -44 7 -7 14 -9 14 -4 0 5 5 2 10 -6 9
-13 11 -13 21 0 9 13 10 12 5 -2 -6 -21 7 -23 26 -5 7 6 20 13 27 15 12 3 12
0 1 -13 -11 -13 -10 -15 4 -9 9 3 16 11 16 17 0 6 7 2 15 -9 15 -19 15 -19 30
0 8 11 15 15 15 9 0 -6 7 -14 16 -17 13 -5 14 -4 6 7 -9 10 -8 14 3 14 8 0 16
-6 19 -14 3 -7 15 -13 26 -13 12 0 18 5 15 10 -4 6 -11 8 -16 5 -5 -4 -9 -2
-9 3 0 4 20 8 45 8 25 -1 45 -5 45 -10 0 -5 6 -3 14 3 8 6 18 11 22 10 20 -3
34 2 32 11 -2 5 17 23 42 39 32 22 46 27 52 18 5 -8 10 -9 16 -2 9 13 32 13
31 0 0 -5 -7 -9 -16 -7 -10 2 -12 -1 -7 -9 4 -8 3 -10 -4 -5 -7 4 -12 3 -12
-2 0 -13 -68 -43 -75 -32 -3 6 -11 10 -16 10 -6 0 -8 -4 -4 -9 7 -12 -25 -30
-42 -24 -6 2 -14 -1 -18 -6 -4 -8 -12 -8 -25 -1 -13 7 -19 6 -23 -4 -6 -14
-96 -21 -214 -16 -32 2 -128 33 -141 47 -8 7 -18 11 -23 8 -5 -3 -18 9 -30 27
-12 18 -19 25 -15 16 7 -24 -9 -23 -26 0 -7 11 -23 24 -35 31 -13 6 -23 19
-23 27 0 8 -4 13 -9 10 -5 -4 -19 10 -31 29 -12 19 -26 35 -31 35 -5 0 -8 3
-8 8 4 21 -2 32 -13 27 -7 -4 0 5 15 19 15 14 29 26 31 26 1 0 2 -11 2 -24z
m-1041 -448 c115 -206 363 -451 621 -615 l77 -48 -109 -6 c-60 -4 -242 -7
-405 -8 l-296 -1 -74 100 c-67 89 -193 288 -201 316 -3 10 328 334 341 334 3
0 24 -33 46 -72z m-281 -513 c42 -66 83 -130 92 -142 16 -23 16 -23 -32 -23
-27 0 -159 -1 -294 -4 -213 -3 -247 -2 -263 12 -17 15 -7 27 170 204 l187 188
32 -58 c18 -31 66 -111 108 -177z"/>
</g>
</svg>
